<?xml version="1.0" encoding="utf-8"?>
<!-- Generator: Adobe Illustrator 16.0.0, SVG Export Plug-In . SVG Version: 6.00 Build 0)  -->
<!DOCTYPE svg PUBLIC "-//W3C//DTD SVG 1.1//EN" "http://www.w3.org/Graphics/SVG/1.1/DTD/svg11.dtd">
<svg version="1.1" id="Layer_1" xmlns="http://www.w3.org/2000/svg" xmlns:xlink="http://www.w3.org/1999/xlink" x="0px" y="0px"
	 width="118.604px" height="111.674px" viewBox="0 0 118.604 111.674" enable-background="new 0 0 118.604 111.674"
	 xml:space="preserve">
<path stroke="#FFFFFF" stroke-width="3" stroke-miterlimit="10" d="M91.263,73.325c0,5.104-4.137,9.238-9.238,9.238H49.992
	c-5.104,0-9.239-4.137-9.239-9.238V41.293c0-5.102,4.136-9.239,9.239-9.239h32.032c5.103,0,9.238,4.137,9.238,9.239V73.325z"/>
<path stroke="#FFFFFF" stroke-width="3" stroke-miterlimit="10" d="M-138.427,60.376c0,5.102-4.138,9.238-9.238,9.238h-32.033
	c-5.103,0-9.239-4.137-9.239-9.238V28.343c0-5.102,4.137-9.239,9.239-9.239h32.033c5.102,0,9.238,4.137,9.238,9.239V60.376z"/>
<g>
	
		<linearGradient id="SVGID_1_" gradientUnits="userSpaceOnUse" x1="-522.9539" y1="269.9121" x2="-496.5457" y2="269.9121" gradientTransform="matrix(1 0 0 -1 579.0098 315.0742)">
		<stop  offset="0" style="stop-color:#006E93"/>
		<stop  offset="0.078" style="stop-color:#0087A3"/>
		<stop  offset="0.2023" style="stop-color:#01A8B8"/>
		<stop  offset="0.321" style="stop-color:#02C0C7"/>
		<stop  offset="0.4305" style="stop-color:#02CFD0"/>
		<stop  offset="0.5222" style="stop-color:#02D4D3"/>
		<stop  offset="0.6002" style="stop-color:#02CDCF"/>
		<stop  offset="0.715" style="stop-color:#01B9C2"/>
		<stop  offset="0.8525" style="stop-color:#0199AE"/>
		<stop  offset="1" style="stop-color:#006E93"/>
	</linearGradient>
	<path fill="url(#SVGID_1_)" d="M82.464,47.217c0,1.982-1.007,3.73-2.533,4.761c-0.918,0.621-2.022,0.982-3.211,0.982
		c-1.431,0-2.592-0.593-3.688-1.332c-0.55-3.848-3.328-11.787-16.976-10.869c7.524-5.184,17.905-4.431,24.598,2.263l-0.006,0.007
		C81.763,44.076,82.464,45.564,82.464,47.217z"/>
	
		<linearGradient id="SVGID_2_" gradientUnits="userSpaceOnUse" x1="-531.3274" y1="262.3916" x2="-505.9783" y2="262.3916" gradientTransform="matrix(1 0 0 -1 579.0098 315.0742)">
		<stop  offset="0" style="stop-color:#7F1697"/>
		<stop  offset="0.168" style="stop-color:#67107A"/>
		<stop  offset="0.4009" style="stop-color:#4B0959"/>
		<stop  offset="0.6232" style="stop-color:#360441"/>
		<stop  offset="0.8284" style="stop-color:#2A0132"/>
		<stop  offset="1" style="stop-color:#26002D"/>
	</linearGradient>
	<path fill="url(#SVGID_2_)" d="M73.031,51.627c-0.556-0.372-1.096-0.781-1.647-1.17c-2.781-2.569-7.742-2.47-11.503-1.314
		c-5.164,1.586-8.603,6.088-9.719,11.221c-0.284,1.309-0.594,2.811-0.749,4.316c-3.239-7.119-1.932-15.802,3.927-21.659
		c0.85-0.851,1.759-1.605,2.716-2.263C69.702,39.841,72.482,47.78,73.031,51.627z"/>
	
		<linearGradient id="SVGID_3_" gradientUnits="userSpaceOnUse" x1="-522.8342" y1="262.5752" x2="-503.6052" y2="237.6111" gradientTransform="matrix(1 0 0 -1 579.0098 315.0742)">
		<stop  offset="0" style="stop-color:#880762"/>
		<stop  offset="0.1138" style="stop-color:#B10B7B"/>
		<stop  offset="0.2281" style="stop-color:#D20F90"/>
		<stop  offset="0.3372" style="stop-color:#EA119F"/>
		<stop  offset="0.4379" style="stop-color:#F912A8"/>
		<stop  offset="0.5222" style="stop-color:#FE13AB"/>
		<stop  offset="0.5817" style="stop-color:#FE13A4"/>
		<stop  offset="0.6693" style="stop-color:#FD1490"/>
		<stop  offset="0.7742" style="stop-color:#FC1470"/>
		<stop  offset="0.8914" style="stop-color:#FB1543"/>
		<stop  offset="1" style="stop-color:#FA1613"/>
	</linearGradient>
	<path fill="url(#SVGID_3_)" d="M79.481,71.457c-0.123,0.097-0.249,0.187-0.378,0.271c-7.584,6.115-18.718,5.653-25.763-1.393
		c-1.687-1.686-2.995-3.605-3.927-5.654c0.154-1.507,0.464-3.009,0.749-4.316c1.116-5.133,4.555-9.635,9.719-11.221
		c3.761-1.156,8.722-1.254,11.503,1.314c-1.074-0.759-2.192-1.438-3.55-1.605c-2.303-0.284-4.751,0.632-6.394,2.272
		c-0.574,0.574-1.041,1.217-1.4,1.901c-0.43,0.815-0.703,1.691-0.824,2.582v0.004C55.667,69.765,72.446,71.388,79.481,71.457z"/>
	
		<linearGradient id="SVGID_4_" gradientUnits="userSpaceOnUse" x1="-520.281" y1="251.54" x2="-497.2957" y2="251.54" gradientTransform="matrix(1 0 0 -1 579.0098 315.0742)">
		<stop  offset="0" style="stop-color:#6F0603"/>
		<stop  offset="0.0498" style="stop-color:#860A05"/>
		<stop  offset="0.1559" style="stop-color:#B11108"/>
		<stop  offset="0.259" style="stop-color:#D2170B"/>
		<stop  offset="0.3566" style="stop-color:#EA1B0C"/>
		<stop  offset="0.4468" style="stop-color:#F91D0E"/>
		<stop  offset="0.5222" style="stop-color:#FE1E0E"/>
		<stop  offset="0.5913" style="stop-color:#FE250E"/>
		<stop  offset="0.6929" style="stop-color:#FE390D"/>
		<stop  offset="0.8147" style="stop-color:#FE590C"/>
		<stop  offset="0.9509" style="stop-color:#FE860A"/>
		<stop  offset="1" style="stop-color:#FE9809"/>
	</linearGradient>
	<path fill="url(#SVGID_4_)" d="M81.714,66.903c0,1.854-0.876,3.502-2.233,4.554c-7.035-0.069-23.813-1.692-20.266-15.847
		c-0.322,2.349,0.421,4.814,2.226,6.623c2.12,2.117,5.363,2.854,8.191,1.845c2.255-0.808,4.079-2.72,6.327-2.911
		c0.771-0.064,1.592,0.072,2.497,0.527C80.377,62.663,81.714,64.72,81.714,66.903z"/>
</g>
<path fill="#445C83" stroke="#FFFFFF" stroke-width="3" stroke-miterlimit="10" d="M-138.427,60.376
	c0,5.102-4.138,9.238-9.238,9.238h-32.033c-5.103,0-9.239-4.137-9.239-9.238V28.343c0-5.102,4.137-9.239,9.239-9.239h32.033
	c5.102,0,9.238,4.137,9.238,9.239V60.376z"/>
<g>
	
		<linearGradient id="SVGID_5_" gradientUnits="userSpaceOnUse" x1="-757.8328" y1="247.7354" x2="-727.4001" y2="247.7354" gradientTransform="matrix(1 0 0 -1 579.0098 315.0742)">
		<stop  offset="0" style="stop-color:#880762"/>
		<stop  offset="0.1138" style="stop-color:#B10B7B"/>
		<stop  offset="0.2281" style="stop-color:#D20F90"/>
		<stop  offset="0.3372" style="stop-color:#EA119F"/>
		<stop  offset="0.4379" style="stop-color:#F912A8"/>
		<stop  offset="0.5222" style="stop-color:#FE13AB"/>
		<stop  offset="0.5817" style="stop-color:#FE13A4"/>
		<stop  offset="0.6693" style="stop-color:#FD1490"/>
		<stop  offset="0.7742" style="stop-color:#FC1470"/>
		<stop  offset="0.8914" style="stop-color:#FB1543"/>
		<stop  offset="1" style="stop-color:#FA1613"/>
	</linearGradient>
	<path fill="url(#SVGID_5_)" d="M-148.5,77.538c-0.206-1.441-0.564-2.938-0.852-4.393c-1.022-5.189-1.273-10.668-0.372-15.904
		c0.276-1.614,1.219-5.364-0.93-6.226c-0.964-0.388-2.146-0.069-3.173-0.142c-1.141-0.081-2.219-0.464-3.361-0.456
		c-2.235,0.018-4.295,0.928-6.563,0.908c-1.137-0.009-2.135-0.487-3.301-0.452c-1.043,0.03-2.113,0.242-3.182,0.325
		c-1.574,0.124-3.237,0.162-4.794-0.109c-0.671-0.115-1.354-0.244-2.07-0.219c-0.568,0.021-1.253,0.04-1.727,0.154
		c2.899,4.815,2.65,13.616,2.646,13.75c0.134,1.506-0.063,3.229-0.036,3.873c0.095,2.363-0.122,4.543-0.587,6.779
		c-0.227,1.09-0.596,2.629-0.384,3.752c0.145,0.768,0.848,2.123,1.747,1.979c2.812-0.451,0.168-10.966,0.123-12.104
		c-0.077-1.896-0.431-5.099,1.989-5.666c2.668-0.623,1.491,3.571,1.336,4.889c-0.111,0.934-0.357,2.336,0.583,2.943
		c1.143,0.739,2.042-0.613,2.109-1.597c0.078-1.131-0.367-1.994-0.573-3.058c-0.192-0.994-0.155-2.129,0.05-3.106
		c0.181-0.858,0.894-2.166,2.033-1.502c0.914,0.532,0.835,1.974,0.979,2.854c0.372,2.258,0.147,4.803-0.122,7.062
		c-0.137,1.155-0.262,2.33-0.342,3.491c-0.076,1.119-0.255,2.353-0.001,3.453c0.223,0.966,0.644,2.103,1.838,2.029
		c1.317-0.076,1.718-1.313,1.8-2.43c0.088-1.205-0.155-2.189-0.471-3.313c-0.305-1.092-0.286-2.293-0.631-3.381
		c-0.634-2.011-1.226-4.115-0.541-6.234c0.74-2.299,2.679-3.639,5.086-3.219c2.044,0.352,4.053,1.559,4.122,3.854
		c0.088,2.961-0.243,5.771-0.688,8.672c-0.28,1.809-0.538,3.701-0.499,5.545c0.03,1.477,0.409,3.035,1.873,3.703
		c2.821,1.285,2.586-3.506,2.121-4.967c-0.752-2.367-1.192-5-1.489-7.496c-0.159-1.324-0.143-2.654-0.114-4.008
		c0.021-0.957,0.026-2.334,0.786-3.014c1.014-0.91,1.979-0.24,2.175,0.867c0.188,1.086-0.017,2.286,0.123,3.375
		c0.342,2.639,0.595,5.311,0.284,7.993c-0.13,1.129-0.778,2.569-0.38,3.67c0.356,0.99,1.681,1.13,2.58,0.568
		C-148.182,80.347-148.347,78.614-148.5,77.538z"/>
	
		<linearGradient id="SVGID_6_" gradientUnits="userSpaceOnUse" x1="-752.6423" y1="283.8613" x2="-726.2351" y2="283.8613" gradientTransform="matrix(1 0 0 -1 579.0098 315.0742)">
		<stop  offset="0" style="stop-color:#006E93"/>
		<stop  offset="0.078" style="stop-color:#0087A3"/>
		<stop  offset="0.2023" style="stop-color:#01A8B8"/>
		<stop  offset="0.321" style="stop-color:#02C0C7"/>
		<stop  offset="0.4305" style="stop-color:#02CFD0"/>
		<stop  offset="0.5222" style="stop-color:#02D4D3"/>
		<stop  offset="0.6002" style="stop-color:#02CDCF"/>
		<stop  offset="0.715" style="stop-color:#01B9C2"/>
		<stop  offset="0.8525" style="stop-color:#0199AE"/>
		<stop  offset="1" style="stop-color:#006E93"/>
	</linearGradient>
	<path fill="url(#SVGID_6_)" d="M-147.225,33.267c0,1.982-1.007,3.73-2.532,4.761c-0.918,0.621-2.023,0.982-3.211,0.982
		c-1.432,0-2.593-0.593-3.689-1.332c-0.549-3.848-3.328-11.787-16.975-10.869c7.523-5.184,17.904-4.431,24.598,2.263l-0.006,0.007
		C-147.927,30.126-147.225,31.614-147.225,33.267z"/>
	
		<linearGradient id="SVGID_7_" gradientUnits="userSpaceOnUse" x1="-761.0173" y1="276.3408" x2="-735.6687" y2="276.3408" gradientTransform="matrix(1 0 0 -1 579.0098 315.0742)">
		<stop  offset="0" style="stop-color:#7F1697"/>
		<stop  offset="0.168" style="stop-color:#67107A"/>
		<stop  offset="0.4009" style="stop-color:#4B0959"/>
		<stop  offset="0.6232" style="stop-color:#360441"/>
		<stop  offset="0.8284" style="stop-color:#2A0132"/>
		<stop  offset="1" style="stop-color:#26002D"/>
	</linearGradient>
	<path fill="url(#SVGID_7_)" d="M-156.659,37.678c-0.555-0.372-1.095-0.781-1.647-1.17c-2.78-2.569-7.741-2.47-11.503-1.314
		c-5.164,1.586-8.602,6.088-9.719,11.222c-0.284,1.308-0.593,2.81-0.749,4.316c-3.239-7.12-1.931-15.802,3.927-21.659
		c0.851-0.851,1.76-1.604,2.717-2.263C-159.987,25.891-157.208,33.83-156.659,37.678z"/>
	
		<linearGradient id="SVGID_8_" gradientUnits="userSpaceOnUse" x1="-752.5251" y1="276.5264" x2="-733.2954" y2="251.5614" gradientTransform="matrix(1 0 0 -1 579.0098 315.0742)">
		<stop  offset="0" style="stop-color:#880762"/>
		<stop  offset="0.1138" style="stop-color:#B10B7B"/>
		<stop  offset="0.2281" style="stop-color:#D20F90"/>
		<stop  offset="0.3372" style="stop-color:#EA119F"/>
		<stop  offset="0.4379" style="stop-color:#F912A8"/>
		<stop  offset="0.5222" style="stop-color:#FE13AB"/>
		<stop  offset="0.5817" style="stop-color:#FE13A4"/>
		<stop  offset="0.6693" style="stop-color:#FD1490"/>
		<stop  offset="0.7742" style="stop-color:#FC1470"/>
		<stop  offset="0.8914" style="stop-color:#FB1543"/>
		<stop  offset="1" style="stop-color:#FA1613"/>
	</linearGradient>
	<path fill="url(#SVGID_8_)" d="M-150.209,57.507c-0.123,0.096-0.249,0.186-0.378,0.27c-7.584,6.117-18.719,5.654-25.764-1.391
		c-1.686-1.685-2.995-3.606-3.927-5.655c0.155-1.507,0.464-3.009,0.749-4.316c1.117-5.134,4.555-9.636,9.719-11.222
		c3.762-1.156,8.723-1.254,11.503,1.314c-1.073-0.759-2.191-1.438-3.55-1.605c-2.303-0.284-4.751,0.632-6.393,2.272
		c-0.575,0.574-1.041,1.217-1.401,1.901c-0.429,0.815-0.703,1.691-0.824,2.582v0.004C-174.022,55.815-157.244,57.438-150.209,57.507
		z"/>
	
		<linearGradient id="SVGID_9_" gradientUnits="userSpaceOnUse" x1="-749.9705" y1="265.4902" x2="-726.9851" y2="265.4902" gradientTransform="matrix(1 0 0 -1 579.0098 315.0742)">
		<stop  offset="0" style="stop-color:#6F0603"/>
		<stop  offset="0.0498" style="stop-color:#860A05"/>
		<stop  offset="0.1559" style="stop-color:#B11108"/>
		<stop  offset="0.259" style="stop-color:#D2170B"/>
		<stop  offset="0.3566" style="stop-color:#EA1B0C"/>
		<stop  offset="0.4468" style="stop-color:#F91D0E"/>
		<stop  offset="0.5222" style="stop-color:#FE1E0E"/>
		<stop  offset="0.5913" style="stop-color:#FE250E"/>
		<stop  offset="0.6929" style="stop-color:#FE390D"/>
		<stop  offset="0.8147" style="stop-color:#FE590C"/>
		<stop  offset="0.9509" style="stop-color:#FE860A"/>
		<stop  offset="1" style="stop-color:#FE9809"/>
	</linearGradient>
	<path fill="url(#SVGID_9_)" d="M-147.975,52.955c0,1.854-0.876,3.501-2.232,4.552c-7.035-0.068-23.813-1.692-20.267-15.846
		c-0.321,2.349,0.421,4.815,2.227,6.623c2.12,2.118,5.363,2.855,8.19,1.845c2.256-0.807,4.079-2.72,6.327-2.911
		c0.771-0.065,1.592,0.072,2.497,0.527C-149.312,48.713-147.975,50.77-147.975,52.955z"/>
</g>
</svg>
